<svg width="131" height="30" viewBox="0 0 211 48" fill="none" xmlns="http://www.w3.org/2000/svg">
<path d="M1.38667 19.2622C1.38667 17.7452 1.77778 16.4059 2.56 15.2444C3.34222 14.083 4.42074 13.1822 5.79556 12.5422C7.19407 11.8785 8.80593 11.5467 10.6311 11.5467C12.3852 11.5467 13.9022 11.8548 15.1822 12.4711C16.4859 13.0874 17.4933 13.9644 18.2044 15.1022C18.9393 16.24 19.3304 17.5911 19.3778 19.1556H14.8267C14.7793 18.0415 14.3763 17.1763 13.6178 16.56C12.8593 15.92 11.84 15.6 10.56 15.6C9.16148 15.6 8.03556 15.92 7.18222 16.56C6.35259 17.1763 5.93778 18.0296 5.93778 19.12C5.93778 20.0444 6.18667 20.7793 6.68444 21.3244C7.20593 21.8459 8.01185 22.237 9.10222 22.4978L13.1911 23.4222C15.4193 23.8963 17.0785 24.7141 18.1689 25.8756C19.2593 27.0133 19.8044 28.5541 19.8044 30.4978C19.8044 32.0859 19.4133 33.4844 18.6311 34.6933C17.8489 35.9022 16.7348 36.8385 15.2889 37.5022C13.8667 38.1422 12.1956 38.4622 10.2756 38.4622C8.45037 38.4622 6.85037 38.1541 5.47556 37.5378C4.10074 36.8978 3.02222 36.0089 2.24 34.8711C1.48148 33.7333 1.07852 32.3941 1.03111 30.8533H5.58222C5.60593 31.9437 6.03259 32.8089 6.86222 33.4489C7.71556 34.0652 8.86519 34.3733 10.3111 34.3733C11.8281 34.3733 13.0252 34.0652 13.9022 33.4489C14.803 32.8089 15.2533 31.9674 15.2533 30.9244C15.2533 30.0237 15.0163 29.3126 14.5422 28.7911C14.0681 28.2459 13.2978 27.8667 12.2311 27.6533L8.10667 26.7289C5.90222 26.2548 4.23111 25.4015 3.09333 24.1689C1.95556 22.9126 1.38667 21.277 1.38667 19.2622ZM26.9083 38H22.5706V11.5467H26.9439V22.7111C27.4891 21.8578 28.2476 21.1822 29.2194 20.6844C30.215 20.163 31.3528 19.9022 32.6328 19.9022C34.7898 19.9022 36.4254 20.5541 37.5394 21.8578C38.6772 23.1615 39.2461 24.9393 39.2461 27.1911V38H34.9083V28.2222C34.9083 27.2267 34.7543 26.4089 34.4461 25.7689C34.138 25.1289 33.7113 24.6548 33.1661 24.3467C32.6209 24.0148 31.9809 23.8489 31.2461 23.8489C30.3454 23.8489 29.5631 24.0504 28.8994 24.4533C28.2594 24.8326 27.7617 25.3659 27.4061 26.0533C27.0743 26.7407 26.9083 27.523 26.9083 28.4V38ZM42.7969 38V20.4356H47.1347V38H42.7969ZM44.9303 16.9156C44.1955 16.9156 43.5673 16.6667 43.0458 16.1689C42.5481 15.6474 42.2992 15.0193 42.2992 14.2844C42.2992 13.5496 42.5481 12.9333 43.0458 12.4356C43.5673 11.9378 44.1955 11.6889 44.9303 11.6889C45.6651 11.6889 46.2814 11.9378 46.7792 12.4356C47.3006 12.9333 47.5614 13.5496 47.5614 14.2844C47.5614 15.0193 47.3006 15.6474 46.7792 16.1689C46.2814 16.6667 45.6651 16.9156 44.9303 16.9156ZM55.2431 38H50.9053V20.4356H54.9231L55.2786 22.7111C55.8238 21.8341 56.5942 21.1467 57.5897 20.6489C58.609 20.1511 59.7112 19.9022 60.8964 19.9022C63.1008 19.9022 64.7601 20.5541 65.8742 21.8578C67.0119 23.1615 67.5808 24.9393 67.5808 27.1911V38H63.2431V28.2222C63.2431 26.7526 62.9112 25.6622 62.2475 24.9511C61.5838 24.2163 60.6831 23.8489 59.5453 23.8489C58.1942 23.8489 57.1393 24.2756 56.3808 25.1289C55.6223 25.9822 55.2431 27.12 55.2431 28.5422V38ZM73.38 20.4356L79.1044 36.6489L76.7578 41.0933L68.7933 20.4356H73.38ZM69.2556 46.1422V42.5511H71.8511C72.42 42.5511 72.9178 42.48 73.3444 42.3378C73.7711 42.2193 74.1504 41.9822 74.4822 41.6267C74.8378 41.2711 75.1341 40.7496 75.3711 40.0622L82.66 20.4356H87.14L78.5356 41.9111C77.8956 43.523 77.0896 44.6963 76.1178 45.4311C75.1459 46.1659 73.937 46.5333 72.4911 46.5333C71.8748 46.5333 71.2941 46.4978 70.7489 46.4267C70.2274 46.3793 69.7296 46.2844 69.2556 46.1422Z" fill="white"></path>
<path fill-rule="evenodd" clip-rule="evenodd" d="M106 26.3867L99.7688 32.6177L97.3823 30.2312L103.613 24.0002L97.3818 17.7687L99.7683 15.3822L106 21.6137L112.232 15.3818L114.618 17.7683L108.386 24.0002L114.618 30.2316L112.231 32.618L106 26.3867Z" fill="#8259C0"></path>
<path d="M136.764 14.1778V38H132.213V14.1778H136.764ZM124.604 16.2044V12.0089H144.373V16.2044H124.604ZM148.742 38.4622C146.893 38.4622 145.423 37.9644 144.333 36.9689C143.266 35.9496 142.733 34.6222 142.733 32.9867C142.733 31.3748 143.29 30.0948 144.404 29.1467C145.542 28.1748 147.154 27.6059 149.239 27.44L154.502 27.0133V26.6222C154.502 25.8163 154.348 25.1763 154.039 24.7022C153.755 24.2044 153.34 23.8489 152.795 23.6356C152.25 23.3985 151.61 23.28 150.875 23.28C149.595 23.28 148.611 23.5407 147.924 24.0622C147.236 24.56 146.893 25.2711 146.893 26.1956H143.195C143.195 24.9156 143.515 23.8133 144.155 22.8889C144.819 21.9407 145.743 21.2059 146.928 20.6844C148.137 20.163 149.524 19.9022 151.088 19.9022C152.676 19.9022 154.039 20.1867 155.177 20.7556C156.315 21.3007 157.192 22.1304 157.808 23.2444C158.425 24.3348 158.733 25.6978 158.733 27.3333V38H154.928L154.608 35.4044C154.229 36.3052 153.494 37.04 152.404 37.6089C151.337 38.1778 150.116 38.4622 148.742 38.4622ZM150.128 35.1911C151.479 35.1911 152.546 34.8119 153.328 34.0533C154.134 33.2948 154.537 32.24 154.537 30.8889V29.9644L150.875 30.2489C149.524 30.3674 148.564 30.6519 147.995 31.1022C147.426 31.5289 147.142 32.0978 147.142 32.8089C147.142 33.5911 147.402 34.1837 147.924 34.5867C148.445 34.9896 149.18 35.1911 150.128 35.1911ZM160.932 32.6667H165.056C165.08 33.4252 165.365 34.0296 165.91 34.48C166.455 34.9304 167.213 35.1556 168.185 35.1556C169.228 35.1556 170.01 34.9659 170.532 34.5867C171.077 34.2074 171.35 33.6978 171.35 33.0578C171.35 32.6311 171.207 32.2519 170.923 31.92C170.639 31.5881 170.105 31.3393 169.323 31.1733L166.159 30.4267C164.57 30.0711 163.385 29.5022 162.603 28.72C161.845 27.9141 161.465 26.8119 161.465 25.4133C161.465 24.2756 161.762 23.2919 162.354 22.4622C162.97 21.6326 163.8 21.0044 164.843 20.5778C165.886 20.1274 167.083 19.9022 168.434 19.9022C169.738 19.9022 170.887 20.1393 171.883 20.6133C172.879 21.0874 173.649 21.7511 174.194 22.6044C174.763 23.4578 175.059 24.4533 175.083 25.5911H170.959C170.959 24.8326 170.722 24.24 170.247 23.8133C169.773 23.363 169.11 23.1378 168.256 23.1378C167.403 23.1378 166.739 23.3274 166.265 23.7067C165.791 24.0859 165.554 24.5956 165.554 25.2356C165.554 26.2074 166.313 26.8711 167.83 27.2267L170.994 27.9733C172.464 28.3052 173.566 28.8385 174.301 29.5733C175.059 30.3081 175.439 31.3511 175.439 32.7022C175.439 33.8874 175.13 34.9185 174.514 35.7956C173.898 36.6489 173.033 37.3126 171.919 37.7867C170.805 38.237 169.525 38.4622 168.079 38.4622C165.898 38.4622 164.156 37.9289 162.852 36.8622C161.572 35.7956 160.932 34.397 160.932 32.6667ZM182.404 38H178.101V11.5467H182.404V27.7956L189.23 20.4356H194.67L187.986 27.4044L194.528 38H189.55L184.964 30.6044L182.404 33.2711V38ZM195.1 32.6667H199.224C199.248 33.4252 199.533 34.0296 200.078 34.48C200.623 34.9304 201.381 35.1556 202.353 35.1556C203.396 35.1556 204.179 34.9659 204.7 34.5867C205.245 34.2074 205.518 33.6978 205.518 33.0578C205.518 32.6311 205.376 32.2519 205.091 31.92C204.807 31.5881 204.273 31.3393 203.491 31.1733L200.327 30.4267C198.739 30.0711 197.553 29.5022 196.771 28.72C196.013 27.9141 195.633 26.8119 195.633 25.4133C195.633 24.2756 195.93 23.2919 196.522 22.4622C197.139 21.6326 197.968 21.0044 199.011 20.5778C200.054 20.1274 201.251 19.9022 202.602 19.9022C203.906 19.9022 205.056 20.1393 206.051 20.6133C207.047 21.0874 207.817 21.7511 208.362 22.6044C208.931 23.4578 209.227 24.4533 209.251 25.5911H205.127C205.127 24.8326 204.89 24.24 204.416 23.8133C203.941 23.363 203.278 23.1378 202.424 23.1378C201.571 23.1378 200.907 23.3274 200.433 23.7067C199.959 24.0859 199.722 24.5956 199.722 25.2356C199.722 26.2074 200.481 26.8711 201.998 27.2267L205.162 27.9733C206.632 28.3052 207.734 28.8385 208.469 29.5733C209.227 30.3081 209.607 31.3511 209.607 32.7022C209.607 33.8874 209.299 34.9185 208.682 35.7956C208.066 36.6489 207.201 37.3126 206.087 37.7867C204.973 38.237 203.693 38.4622 202.247 38.4622C200.066 38.4622 198.324 37.9289 197.02 36.8622C195.74 35.7956 195.1 34.397 195.1 32.6667Z" fill="#8259C0"></path>
</svg>